<svg width="16" height="16" viewBox="0 0 16 16" xmlns="http://www.w3.org/2000/svg"><title>16x16</title><path d="M8.009 16c-.008.018-.589-.568-1.742-1.758a73.604 73.604 0 0 1-3.682-4.124C1.305 8.58.537 7.422.285 6.646c-.42-1.287-.376-2.548.133-3.784C.926 1.626 1.752.775 2.896.31 4.04-.155 5.163-.097 6.263.485A4.46 4.46 0 0 1 8.01 2.117c.43-.7 1.01-1.244 1.742-1.632 1.098-.582 2.218-.64 3.36-.175 1.141.465 1.965 1.316 2.472 2.552.507 1.236.552 2.497.133 3.784-.16.49-.546 1.154-1.162 1.99a39.67 39.67 0 0 1-1.896 2.386 82.92 82.92 0 0 1-2.205 2.45 80.27 80.27 0 0 1-1.703 1.787 199.75 199.75 0 0 0-.741.74z" fill="#000" fill-rule="evenodd"/></svg>