<svg width="397" height="353" viewBox="0 0 397 353" xmlns="http://www.w3.org/2000/svg"><title>Group 2</title><g fill="none" fill-rule="evenodd"><path d="M72.313 6.837C43.963 17.1 23.493 35.865 10.9 63.135c-12.593 27.27-13.694 55.102-3.304 83.495 6.268 17.125 25.268 42.657 57 76.594 31.734 33.937 62.147 64.269 91.24 90.995 29.094 26.725 43.476 39.639 43.146 38.737.844-5.92 2.024-14.003 3.541-24.249 1.518-10.246 3.815-29.324 6.895-57.234 3.08-27.91 5.42-53.382 7.021-76.418 1.603-23.036 2.292-46.51 2.07-70.416-.221-23.908-2.311-41.27-6.27-52.086-10.39-28.392-29.222-49.008-56.495-61.848-27.272-12.84-55.082-14.13-83.431-3.868" fill="#FF7C7F"/><path d="M325.404 6.838c-28.283-10.262-56.029-8.973-83.238 3.867-27.209 12.84-45.997 33.457-56.364 61.85-6.252 17.127-8.195 48.833-5.826 95.118 2.37 46.285 6.054 88.964 11.056 128.038 5.002 39.073 7.667 58.16 7.997 57.258a4718.203 4718.203 0 0 1 18.342-16.312c7.766-6.88 21.825-20.026 42.175-39.438 20.35-19.412 38.564-37.43 54.642-54.053 16.08-16.623 31.742-34.164 46.988-52.62 15.247-18.457 24.845-33.094 28.794-43.91 10.367-28.394 9.268-56.227-3.296-83.498-12.564-27.272-32.987-46.038-61.27-56.3" fill="#49B6FF"/><path d="M199.972 223.705l-.064.441c.09.246-3.82-3.266-11.73-10.534-7.908-7.268-16.174-15.518-24.798-24.75-8.624-9.232-13.784-16.18-15.482-20.844-2.814-7.733-2.499-15.318.945-22.757 3.445-7.44 9.03-12.565 16.756-15.377 7.727-2.812 15.3-2.476 22.72 1.009 4.896 2.299 8.79 5.523 11.68 9.672 2.892-4.15 6.785-7.373 11.681-9.672 7.42-3.485 14.994-3.821 22.72-1.01 7.726 2.813 13.312 7.938 16.756 15.378 3.445 7.439 3.76 15.024.945 22.757-1.072 2.946-3.684 6.93-7.836 11.951a244.123 244.123 0 0 1-12.798 14.315c-4.38 4.522-9.342 9.422-14.886 14.702-5.545 5.279-9.375 8.854-11.491 10.725-2.117 1.87-3.783 3.349-4.999 4.435-.016.047-.056-.1-.12-.44z" fill="#FFF"/></g></svg>