<?xml version="1.0" encoding="UTF-8"?>
<svg width="397px" height="353px" viewBox="0 0 397 353" version="1.1" xmlns="http://www.w3.org/2000/svg" xmlns:xlink="http://www.w3.org/1999/xlink">
    <!-- Generator: Sketch 41.2 (35397) - http://www.bohemiancoding.com/sketch -->
    <title>Group 2</title>
    <desc>Created with Sketch.</desc>
    <defs></defs>
    <g id="Symbols" stroke="none" stroke-width="1" fill="none" fill-rule="evenodd">
        <g id="Heart">
            <g id="Group-2">
                <path d="M72.3127694,6.83747296 C43.9637612,17.0992367 23.4929251,35.8649143 10.8998441,63.1354221 C-1.69323686,90.4059299 -2.79447,118.237107 7.59639212,146.629631 C13.8638138,163.755054 32.86387,189.286924 64.5967305,223.223646 C96.3298383,257.161045 126.742642,287.492834 155.836471,314.218532 C184.9303,340.94423 199.31236,353.857651 198.982327,352.955851 C199.825583,347.035942 201.005904,338.953023 202.52329,328.707091 C204.040675,318.46116 206.338458,299.382892 209.417797,271.473397 C212.497137,243.563903 214.837803,218.091409 216.439303,195.054563 C218.041961,172.018829 218.731387,148.545804 218.509482,124.638626 C218.287576,100.731448 216.19762,83.3693013 212.239196,72.5531021 C201.848334,44.1605789 183.016827,23.5446477 155.744426,10.7046324 C128.472026,-2.13538282 100.661778,-3.42429081 72.3127694,6.83747296" id="Shape" fill="#FF7C7F"></path>
                <path d="M325.403915,6.83773707 C297.120753,-3.42442308 269.375099,-2.1354653 242.166043,10.7050459 C214.956988,23.5455571 196.16922,44.1622847 185.802492,72.5559045 C179.549628,89.6819896 177.607218,121.387967 179.976419,167.672726 C182.345373,213.958161 186.030238,256.637366 191.032341,295.710822 C196.034444,334.784278 198.699304,353.871319 199.028571,352.969484 C203.490325,348.973487 209.604441,343.535948 217.37092,336.656866 C225.137399,329.777784 239.195587,316.631383 259.545653,297.219256 C279.895719,277.807128 298.109814,259.789693 314.188431,243.165597 C330.267217,226.543094 345.930026,209.001767 361.176287,190.545235 C376.422548,172.088704 386.020748,157.451911 389.969977,146.635294 C400.336705,118.241674 399.23803,90.409422 386.674198,63.1378608 C374.110367,35.8662996 353.687078,17.0998972 325.403915,6.83773707" id="Shape" fill="#49B6FF"></path>
                <path d="M199.971921,223.705242 C199.949918,223.856879 199.928638,224.003921 199.908083,224.14637 C199.997474,224.391968 196.087687,220.880332 188.178811,213.612266 C180.269935,206.3442 172.003812,198.094043 163.380081,188.861928 C154.756416,179.629998 149.595834,172.68183 147.898288,168.01786 C145.083897,160.285386 145.398966,152.699676 148.843427,145.260547 C152.287887,137.821417 157.873149,132.695929 165.599325,129.883831 C173.325501,127.071732 180.89866,127.407948 188.319051,130.892595 C193.215338,133.191912 197.108903,136.415924 199.999765,140.564684 C202.890628,136.415924 206.784193,133.191912 211.68048,130.892595 C219.10087,127.407948 226.674029,127.071732 234.400206,129.883831 C242.126382,132.695929 247.711643,137.821417 251.156104,145.260547 C254.600564,152.699676 254.915633,160.285386 252.101243,168.01786 C251.029094,170.963564 248.417,174.947312 244.265209,179.968986 C240.113417,184.99066 235.84742,189.762687 231.467372,194.284082 C227.08737,198.805911 222.125196,203.706307 216.580715,208.985638 C211.036235,214.264969 207.205865,217.84012 205.08956,219.710657 C202.973254,221.581194 201.307217,223.059765 200.091447,224.14637 C200.07461,224.192628 200.034769,224.045584 199.971921,223.705242 Z" id="Combined-Shape" fill="#FFFFFF"></path>
            </g>
        </g>
    </g>
</svg>