<svg width="1270" height="93" viewBox="0 0 1270 93" xmlns="http://www.w3.org/2000/svg"><title>Slice</title><g transform="translate(-249 -41)" fill="none" fill-rule="evenodd"><ellipse fill="#49B6FF" cx="872.843" cy="167" rx="201.38" ry="111"/><ellipse fill="#FF7C7F" cx="1484.794" cy="167.5" rx="117.146" ry="124.5"/><ellipse fill="#FF7C7F" cx="1131.681" cy="181.5" rx="174.604" ry="114.5"/><ellipse fill="#49B6FF" cx="1343.66" cy="152" rx="99.853" ry="64"/><ellipse fill="#FF7C7F" transform="matrix(-1 0 0 1 566.412 0)" cx="283.206" cy="165.5" rx="117.146" ry="124.5"/><ellipse fill="#FF7C7F" transform="matrix(-1 0 0 1 1272.638 0)" cx="636.319" cy="179.5" rx="174.604" ry="114.5"/><ellipse fill="#49B6FF" transform="matrix(-1 0 0 1 848.68 0)" cx="424.34" cy="150" rx="99.853" ry="64"/><path d="M249 134h1270V0h249v296H0V0h249v134z" fill="#FFF"/></g></svg>