<svg width="147px" height="35px" viewBox="0 0 147 35" version="1.1" xmlns="http://www.w3.org/2000/svg" xmlns:xlink="http://www.w3.org/1999/xlink">
    <!-- Generator: Sketch 41.2 (35397) - http://www.bohemiancoding.com/sketch -->
    <desc>Created with Sketch.</desc>
    <defs></defs>
    <g id="logo" stroke="none" stroke-width="1" fill="none" fill-rule="evenodd">
        <g id="Page-1" fill="#FD7E81">
            <path d="M21.2249993,25.45 C18.4749993,26.95 14.7249993,28.75 11.5249993,28.75 C9.07499932,28.75 6.82499932,27.25 6.82499932,24.6 C6.82499932,21.95 8.97499932,17.85 12.0249993,17.85 C13.1249993,17.85 13.3749993,18.45 13.3749993,19.45 C13.3749993,20.05 13.3249993,20.65 13.2749993,21.25 L20.0749993,21.25 C20.1249993,20.7 20.1749993,20.15 20.1749993,19.6 C20.1749993,14.95 17.3249993,11.5 12.5249993,11.5 C5.72499932,11.5 0.47499932,18.15 0.47499932,24.65 C0.47499932,31.05 4.77499932,34.65 10.9749993,34.65 C14.3749993,34.65 17.5249993,33.65 20.4749993,32 L21.2249993,25.45 Z M47.4749993,27 C46.6749993,27.45 45.8249993,27.9 44.8749993,27.9 C43.7749993,27.9 43.4749993,27.25 43.4749993,26.25 C43.4749993,25.45 43.5749993,24.65 43.6749993,23.85 C43.9249993,21.45 44.3249993,19 44.3249993,16.55 C44.3249993,13.35 41.9749993,11.35 38.8749993,11.35 C35.5749993,11.35 33.2749993,13.5 31.2249993,15.9 L32.9749993,0.65 L26.5749993,0.65 L22.7749993,34 L29.2749993,34 C29.9749993,29.4 31.2749993,24.8 34.2249993,21.1 C34.7749993,20.4 35.7249993,19.25 36.7249993,19.25 C37.4249993,19.25 37.5749993,19.95 37.5749993,20.5 C37.5749993,21.1 37.4749993,21.7 37.4249993,22.3 L36.8749993,27.25 C36.8249993,27.65 36.7749993,28.1 36.7749993,28.5 C36.7749993,31.95 38.6249993,34.5 42.2749993,34.5 C43.8749993,34.5 45.3749993,33.95 46.7749993,33.2 L47.4749993,27 Z M74.3249993,26.95 C73.4749993,27.4 72.7749993,27.75 71.7749993,27.75 C70.8249993,27.75 70.5749993,27 70.5749993,26.15 C70.5749993,25.55 70.6249993,24.95 70.6749993,24.35 L72.0749993,12.15 L65.6749993,12.15 L65.5249993,13.45 C63.8249993,12.4 62.6749993,11.65 60.5249993,11.65 C55.6749993,11.65 52.0249993,16.35 50.5749993,20.55 C49.9749993,22.35 49.6249993,24.3 49.6249993,26.2 C49.6249993,31.05 52.2249993,34.85 57.3749993,34.85 C60.3749993,34.85 62.4749993,33.65 64.4749993,31.5 C65.6749993,33.45 67.1749993,34.35 69.4749993,34.35 C71.1749993,34.35 72.2749993,33.95 73.6249993,32.95 L74.3249993,26.95 Z M64.6749993,20.6 C63.8249993,22.9 61.5249993,28.65 58.6249993,28.65 C57.0749993,28.65 56.3249993,27 56.3249993,25.65 C56.3249993,22.9 58.5249993,18.25 61.7249993,18.25 C63.2749993,18.25 64.1249993,19.25 64.6749993,20.6 Z M100.724999,27 C99.9249993,27.45 99.0749993,27.9 98.1249993,27.9 C97.0249993,27.9 96.7249993,27.25 96.7249993,26.25 C96.7249993,25.45 96.8249993,24.65 96.9249993,23.85 C97.1749993,21.45 97.5749993,19 97.5749993,16.55 C97.5749993,13.35 95.2749993,11.35 92.1249993,11.35 C88.8749993,11.35 86.4249993,13.5 84.4749993,15.9 L84.9249993,12.15 L78.4749993,12.15 L76.0249993,34 L82.5249993,34 C83.2249993,29.45 84.5249993,24.75 87.4749993,21.1 C87.9749993,20.45 89.0249993,19.25 89.9249993,19.25 C90.7249993,19.25 90.8249993,19.9 90.8249993,20.55 C90.8249993,23.1 90.0249993,26.1 90.0249993,28.65 C90.0249993,32.05 92.0249993,34.5 95.5249993,34.5 C97.1249993,34.5 98.6249993,33.95 100.024999,33.2 L100.724999,27 Z M123.774999,25.45 C121.024999,26.95 117.274999,28.75 114.074999,28.75 C111.624999,28.75 109.374999,27.25 109.374999,24.6 C109.374999,21.95 111.524999,17.85 114.574999,17.85 C115.674999,17.85 115.924999,18.45 115.924999,19.45 C115.924999,20.05 115.874999,20.65 115.824999,21.25 L122.624999,21.25 C122.674999,20.7 122.724999,20.15 122.724999,19.6 C122.724999,14.95 119.874999,11.5 115.074999,11.5 C108.274999,11.5 103.024999,18.15 103.024999,24.65 C103.024999,31.05 107.324999,34.65 113.524999,34.65 C116.924999,34.65 120.074999,33.65 123.024999,32 L123.774999,25.45 Z M146.574999,25 C143.874999,26.75 140.224999,28.5 136.924999,28.5 C135.474999,28.5 134.274999,28.15 133.374999,27 C138.224999,26.4 144.974999,24.95 144.974999,18.8 C144.974999,14.35 141.524999,11.5 137.224999,11.5 C130.574999,11.5 125.924999,18.15 125.924999,24.35 C125.924999,30.55 130.124999,34.65 136.274999,34.65 C139.524999,34.65 142.974999,33.5 145.774999,31.95 L146.574999,25 Z M137.974999,18.7 C137.974999,20.7 134.674999,21.45 133.174999,21.6 C133.674999,20.2 135.124999,17.65 136.874999,17.65 C137.474999,17.65 137.974999,18.05 137.974999,18.7 Z" id="chance"></path>
        </g>
    </g>
</svg>
