<svg width="576" height="512" viewBox="0 0 576 512" xmlns="http://www.w3.org/2000/svg"><title>Bubble 1</title><g fill="none" fill-rule="evenodd"><path d="M240 0c132.549 0 240 86.957 240 194.224S372.549 388.448 240 388.448c-12.729 0-25.223-.81-37.417-2.355C151.03 437.44 91.497 446.647 32 448v-12.567c32.126-15.677 58-44.231 58-76.866 0-4.553-.356-9.023-1.015-13.396C34.706 309.562 0 255.175 0 194.224 0 86.957 107.452 0 240 0z" fill="#4FB7FC"/><path d="M498 435.343c0 27.973 18.156 52.449 46 65.886V512c-51.562-1.159-98.893-9.051-143.57-53.062a260.865 260.865 0 0 1-32.43 2.021c-47.734 0-91.704-12.879-126.807-34.521 72.336-.254 140.629-23.428 192.417-65.336 26.105-21.127 46.697-45.914 61.207-73.675C510.199 257.994 518 226.636 518 194.224c0-5.224-.225-10.418-.629-15.584C553.656 208.607 576 249.451 576 294.479c0 52.244-30.078 98.86-77.119 129.383a76 76 0 0 0-.881 11.481z" fill="#FD7E81"/></g></svg>