<svg width="396" height="353" viewBox="0 0 396 353" xmlns="http://www.w3.org/2000/svg" xmlns:xlink="http://www.w3.org/1999/xlink"><title>Group</title><defs><path d="M146.404 6.836c-28.283-10.26-56.029-8.971-83.238 3.867C35.957 23.54 17.169 44.153 6.802 72.54.55 89.664-1.393 121.363.976 167.64c2.37 46.276 6.054 88.946 11.056 128.012 5.002 39.066 7.667 58.149 7.997 57.247a4717.86 4717.86 0 0 1 18.342-16.31c7.766-6.877 21.825-20.02 42.175-39.429 20.35-19.408 38.564-37.422 54.642-54.043 16.08-16.619 31.742-34.156 46.988-52.61 15.246-18.452 24.845-33.086 28.794-43.9 10.367-28.388 9.268-56.215-3.296-83.48-12.564-27.267-32.987-46.03-61.27-56.29" id="a"/><path d="M146.404 6.836c-28.283-10.26-56.029-8.971-83.238 3.867C35.957 23.54 17.169 44.153 6.802 72.54.55 89.664-1.393 121.363.976 167.64c2.37 46.276 6.054 88.946 11.056 128.012 5.002 39.066 7.667 58.149 7.997 57.247a4717.86 4717.86 0 0 1 18.342-16.31c7.766-6.877 21.825-20.02 42.175-39.429 20.35-19.408 38.564-37.422 54.642-54.043 16.08-16.619 31.742-34.156 46.988-52.61 15.246-18.452 24.845-33.086 28.794-43.9 10.367-28.388 9.268-56.215-3.296-83.48-12.564-27.267-32.987-46.03-61.27-56.29" id="b"/></defs><g fill="none" fill-rule="evenodd"><use fill="#FFF" xlink:href="#a" transform="translate(178)"/><g transform="matrix(-1 0 0 1 218 0)"><mask id="c" fill="#fff"><use xlink:href="#b"/></mask><use fill="#FD7E81" xlink:href="#b"/><path d="M106.351 160.88l-.064.442c.09.245-3.82-3.266-11.729-10.534-7.909-7.268-16.175-15.519-24.799-24.75-8.623-9.233-13.784-16.18-15.481-20.845-2.815-7.732-2.5-15.318.945-22.757 3.444-7.44 9.03-12.565 16.756-15.377 7.726-2.812 15.299-2.476 22.72 1.009 4.896 2.3 8.79 5.523 11.68 9.672 2.89-4.149 6.785-7.373 11.68-9.672 7.421-3.485 14.994-3.82 22.72-1.009 7.727 2.812 13.312 7.938 16.756 15.377 3.445 7.44 3.76 15.025.946 22.757-1.073 2.946-3.685 6.93-7.836 11.951a244.123 244.123 0 0 1-12.798 14.315c-4.38 4.522-9.342 9.423-14.887 14.702-5.544 5.28-9.375 8.854-11.491 10.725-2.116 1.87-3.782 3.35-4.998 4.436-.017.046-.057-.101-.12-.441z" fill="#FFF" mask="url(#c)"/></g></g></svg>