<svg width="137" height="192" viewBox="0 0 137 192" xmlns="http://www.w3.org/2000/svg"><title>robot-of-circular-parts</title><g fill="#FFF" fill-rule="evenodd"><path d="M113.679 169.718a7.676 7.676 0 0 0 3.128-6.196c0-3.354-2.145-6.178-5.13-7.234 2.98-1.062 5.13-3.874 5.13-7.228 0-3.373-2.175-6.208-5.19-7.252 3.015-1.039 5.19-3.868 5.19-7.24a6.96 6.96 0 0 0-.065-.943c12.292-12.117 19.93-28.973 19.93-47.625H0c0 18.646 7.627 35.49 19.925 47.613-.03.292-.054.59-.054.883 0 3.366 2.18 6.208 5.196 7.252-3.015 1.039-5.196 3.868-5.196 7.24 0 3.355 2.145 6.178 5.13 7.24-2.985 1.057-5.13 3.874-5.13 7.228a7.681 7.681 0 0 0 3.128 6.19c-9.706 2.435-16.904 11.215-16.904 21.685H50.79c0-9.7-6.179-17.943-14.795-21.04a7.689 7.689 0 0 0 4.16-6.84c0-3.355-2.146-6.166-5.137-7.229 2.985-1.056 5.136-3.873 5.136-7.228 0-.627-.101-1.235-.244-1.82a66.29 66.29 0 0 0 26.77 5.616c.549 0 1.085-.024 1.627-.047.56.012 1.12.047 1.68.047a66.38 66.38 0 0 0 26.79-5.622 7.571 7.571 0 0 0-.257 1.88c0 3.354 2.151 6.178 5.13 7.228-2.979 1.057-5.13 3.88-5.13 7.234a7.69 7.69 0 0 0 4.165 6.84c-8.616 3.11-14.795 11.341-14.795 21.052h44.694c.012-10.469-7.192-19.25-16.904-21.684zM32.888 32.554c.31 2.029 1.8 10.493 5.803 18.031-7.042 7.336-11.386 17.304-11.386 28.292h81.421c0-10.977-4.332-20.932-11.363-28.274 3.992-7.527 5.47-15.966 5.791-17.996 7.371-1.63 12.888-8.207 12.888-16.074 0-9.102-7.358-16.473-16.445-16.473-9.074 0-16.445 7.371-16.445 16.473 0 7.766 5.375 14.266 12.596 16.003-.447 2.477-1.644 7.98-4.081 13.13a40.518 40.518 0 0 0-23.553-7.621h-.191a40.575 40.575 0 0 0-23.536 7.604c-2.448-5.163-3.646-10.69-4.105-13.173 7.234-1.737 12.602-8.23 12.602-16.002C52.884 7.377 45.526 0 36.439 0 27.353 0 20 7.377 20 16.474c0 7.878 5.517 14.45 12.888 16.08zm55.365-16.015c0-6.273 5.082-11.364 11.344-11.364 6.263 0 11.34 5.091 11.34 11.364 0 6.28-5.083 11.365-11.34 11.365-6.268 0-11.344-5.091-11.344-11.365zM49.19 66.384h37.663v5.617H49.19v-5.617zM36.439 5.11c6.268 0 11.345 5.092 11.345 11.365 0 6.279-5.083 11.37-11.345 11.37-6.262 0-11.345-5.091-11.345-11.37C25.1 10.2 30.177 5.109 36.44 5.109z"/><ellipse cx="36.136" cy="17.145" rx="5.136" ry="5.145"/><ellipse cx="99.136" cy="17.145" rx="5.136" ry="5.145"/></g></svg>